<svg width="1500" height="1500" viewBox="0 0 1500 1500" fill="none" xmlns="http://www.w3.org/2000/svg">
<rect width="1500" height="1500" fill="white"/>
<path d="M768 340L1021 591L768 591L768 340Z" stroke="#00519E" stroke-width="200"/>
<path d="M839 271L1092 522L839 522L839 271Z" stroke="#407EC9" stroke-width="200"/>
<path d="M1241.66 402.252L1170.94 472.963L1241.66 402.252ZM967.332 127.929L1038.04 57.2183L967.332 127.929ZM960.261 25H265V225H960.261V25ZM155 135V1365H355V135H155ZM265 1475H1234.58V1275H265V1475ZM1344.58 1365V409.323H1144.58V1365H1344.58ZM1312.37 331.542L1038.04 57.2183L896.621 198.64L1170.94 472.963L1312.37 331.542ZM1344.58 409.323C1344.58 380.149 1332.99 352.17 1312.37 331.542L1170.94 472.963C1154.07 456.085 1144.58 433.193 1144.58 409.323H1344.58ZM1234.58 1475C1295.34 1475 1344.58 1425.75 1344.58 1365H1144.58C1144.58 1315.29 1184.88 1275 1234.58 1275V1475ZM155 1365C155 1425.75 204.248 1475 265 1475V1275C314.706 1275 355 1315.29 355 1365H155ZM265 25C204.249 25 155 74.2485 155 135H355C355 184.706 314.705 225 265 225V25ZM960.261 225C936.391 225 913.5 215.518 896.621 198.64L1038.04 57.2183C1017.41 36.5894 989.435 25 960.261 25V225Z" fill="#407EC9"/>
</svg>
