<svg width="203" height="40" viewBox="0 0 203 40" fill="none" xmlns="http://www.w3.org/2000/svg">
<g clip-path="url(#clip0_1562_5033)">
<path fill-rule="evenodd" clip-rule="evenodd" d="M26.0557 11.6853C24.4112 10.5865 22.4778 10 20.5 10V0C24.4556 0 28.3224 1.17298 31.6114 3.37061C34.9004 5.56823 37.4638 8.69181 38.9776 12.3463C40.4913 16.0008 40.8874 20.0222 40.1157 23.9018C39.344 27.7814 37.4392 31.3451 34.6421 34.1421C31.8451 36.9392 28.2814 38.844 24.4018 39.6157C20.5222 40.3874 16.5008 39.9913 12.8463 38.4776C9.1918 36.9638 6.06823 34.4004 3.87061 31.1114C1.67298 27.8224 0.5 23.9556 0.5 20H10.5C10.5 21.9778 11.0865 23.9112 12.1853 25.5557C13.2841 27.2002 14.8459 28.4819 16.6732 29.2388C18.5004 29.9957 20.5111 30.1937 22.4509 29.8078C24.3907 29.422 26.1725 28.4696 27.5711 27.0711C28.9696 25.6725 29.922 23.8907 30.3078 21.9509C30.6937 20.0111 30.4957 18.0004 29.7388 16.1732C28.9819 14.3459 27.7002 12.7841 26.0557 11.6853Z" fill="#DB7368"/>
<path fill-rule="evenodd" clip-rule="evenodd" d="M10.5 5.28493e-06C10.5 1.31322 10.2413 2.61358 9.73879 3.82684C9.23624 5.04009 8.49965 6.14248 7.57106 7.07107C6.64248 7.99966 5.54009 8.73625 4.32683 9.2388C3.11357 9.74134 1.81321 10 0.5 10L0.5 20C3.12643 20 5.72715 19.4827 8.15367 18.4776C10.5802 17.4725 12.785 15.9993 14.6421 14.1421C16.4993 12.285 17.9725 10.0802 18.9776 7.65367C19.9827 5.22715 20.5 2.62643 20.5 0L10.5 5.28493e-06Z" fill="#DB7368"/>
<path d="M126.119 14.4531H121.267V29.8654H126.119V14.4531Z" fill="#DB7368"/>
<path d="M121.807 11.5666C122.314 12.074 122.948 12.3277 123.709 12.3277C124.47 12.3277 125.094 12.074 125.58 11.5666C126.067 11.0381 126.31 10.4038 126.31 9.66385C126.31 8.90277 126.067 8.26849 125.58 7.76111C125.094 7.25369 124.47 7 123.709 7C122.948 7 122.314 7.25369 121.807 7.76111C121.32 8.26849 121.077 8.90277 121.077 9.66385C121.077 10.4038 121.32 11.0381 121.807 11.5666Z" fill="#DB7368"/>
<path d="M51.6562 29.8657V7.47656H56.6352V25.4894H66.5613V29.8657H51.6562Z" fill="#DB7368"/>
<path fill-rule="evenodd" clip-rule="evenodd" d="M75.5273 30.2135C73.9417 30.2135 72.5041 29.8647 71.2144 29.167C69.9459 28.4482 68.9417 27.4757 68.2017 26.2494C67.4618 25.0232 67.0918 23.649 67.0918 22.1268C67.0918 20.6046 67.4618 19.241 68.2017 18.0359C68.9417 16.8308 69.9459 15.8794 71.2144 15.1818C72.4829 14.4629 73.9206 14.1035 75.5273 14.1035C77.1341 14.1035 78.5717 14.4524 79.8402 15.15C81.1087 15.8477 82.113 16.8097 82.8529 18.0359C83.5929 19.241 83.9629 20.6046 83.9629 22.1268C83.9629 23.649 83.5929 25.0232 82.8529 26.2494C82.113 27.4757 81.1087 28.4482 79.8402 29.167C78.5717 29.8647 77.1341 30.2135 75.5273 30.2135ZM75.5273 25.8055C76.225 25.8055 76.8381 25.6575 77.3667 25.3615C77.8952 25.0444 78.2969 24.611 78.5717 24.0613C78.8677 23.4905 79.0157 22.8456 79.0157 22.1268C79.0157 21.408 78.8677 20.7843 78.5717 20.2558C78.2757 19.7061 77.8635 19.2833 77.3349 18.9873C76.8275 18.6701 76.225 18.5116 75.5273 18.5116C74.8508 18.5116 74.2483 18.6701 73.7197 18.9873C73.1912 19.2833 72.7789 19.7061 72.4829 20.2558C72.1869 20.8055 72.039 21.4397 72.039 22.1585C72.039 22.8562 72.1869 23.4905 72.4829 24.0613C72.7789 24.611 73.1912 25.0444 73.7197 25.3615C74.2483 25.6575 74.8508 25.8055 75.5273 25.8055Z" fill="#DB7368"/>
<path fill-rule="evenodd" clip-rule="evenodd" d="M87.8056 35.8897C89.0952 36.4816 90.5857 36.7776 92.2771 36.7776C93.9261 36.7776 95.3955 36.4499 96.6851 35.7945C97.9748 35.1391 98.9895 34.2301 99.7295 33.0673C100.469 31.9045 100.84 30.5303 100.84 28.9446V14.452H96.0825V15.4875C95.7287 15.1897 95.3269 14.9397 94.8775 14.7374C94.0529 14.3357 93.1121 14.1348 92.0551 14.1348C90.6386 14.1348 89.3806 14.4731 88.2813 15.1496C87.1818 15.805 86.3151 16.7141 85.6808 17.8769C85.0465 19.0186 84.7295 20.3082 84.7295 21.7459C84.7295 23.1624 85.0465 24.452 85.6808 25.6148C86.3151 26.7776 87.1818 27.6973 88.2813 28.3738C89.3806 29.0503 90.6386 29.3886 92.0551 29.3886C93.091 29.3886 94.0318 29.1878 94.8775 28.7861C95.2871 28.5915 95.6571 28.3622 95.9874 28.0981V29.0715C95.9874 30.1497 95.6386 30.9848 94.9409 31.5768C94.2644 32.1688 93.3236 32.4647 92.1185 32.4647C91.146 32.4647 90.3109 32.2956 89.6132 31.9573C88.9367 31.6191 88.3235 31.1222 87.7738 30.4668L84.7929 33.4478C85.5328 34.5049 86.5371 35.3189 87.8056 35.8897ZM94.7189 24.6317C94.2326 24.9277 93.6513 25.0757 92.9747 25.0757C92.2982 25.0757 91.7062 24.9277 91.1988 24.6317C90.7125 24.3357 90.332 23.934 90.0572 23.4266C89.7823 22.8981 89.6449 22.3378 89.6449 21.7459C89.6449 21.1116 89.7823 20.5408 90.0572 20.0334C90.332 19.526 90.7231 19.1243 91.2305 18.8283C91.7379 18.5323 92.3193 18.3843 92.9747 18.3843C93.6513 18.3843 94.2326 18.5323 94.7189 18.8283C95.2263 19.1243 95.6068 19.526 95.8606 20.0334C96.1354 20.5408 96.2728 21.1116 96.2728 21.7459C96.2728 22.3801 96.1354 22.9509 95.8606 23.4583C95.6068 23.9446 95.2263 24.3357 94.7189 24.6317Z" fill="#DB7368"/>
<path fill-rule="evenodd" clip-rule="evenodd" d="M111.051 30.2135C109.465 30.2135 108.027 29.8647 106.738 29.167C105.469 28.4482 104.465 27.4757 103.725 26.2494C102.985 25.0232 102.615 23.649 102.615 22.1268C102.615 20.6046 102.985 19.241 103.725 18.0359C104.465 16.8308 105.469 15.8794 106.738 15.1818C108.006 14.4629 109.444 14.1035 111.051 14.1035C112.657 14.1035 114.095 14.4524 115.363 15.15C116.632 15.8477 117.636 16.8097 118.376 18.0359C119.116 19.241 119.486 20.6046 119.486 22.1268C119.486 23.649 119.116 25.0232 118.376 26.2494C117.636 27.4757 116.632 28.4482 115.363 29.167C114.095 29.8647 112.657 30.2135 111.051 30.2135ZM111.051 25.8055C111.748 25.8055 112.361 25.6575 112.89 25.3615C113.418 25.0444 113.82 24.611 114.095 24.0613C114.391 23.4905 114.539 22.8456 114.539 22.1268C114.539 21.408 114.391 20.7843 114.095 20.2558C113.799 19.7061 113.387 19.2833 112.858 18.9873C112.351 18.6701 111.748 18.5116 111.051 18.5116C110.374 18.5116 109.771 18.6701 109.243 18.9873C108.714 19.2833 108.302 19.7061 108.006 20.2558C107.71 20.8055 107.562 21.4397 107.562 22.1585C107.562 22.8562 107.71 23.4905 108.006 24.0613C108.302 24.611 108.714 25.0444 109.243 25.3615C109.771 25.6575 110.374 25.8055 111.051 25.8055Z" fill="#DB7368"/>
<path fill-rule="evenodd" clip-rule="evenodd" d="M137.781 30.1814C136.746 30.1814 135.794 29.9806 134.927 29.5789C134.471 29.3675 134.059 29.1151 133.691 28.8217V36.3654H128.902V14.452H133.754V15.5157C134.106 15.2278 134.497 14.9789 134.927 14.7691C135.794 14.3462 136.746 14.1348 137.781 14.1348C139.24 14.1348 140.53 14.4837 141.65 15.1814C142.792 15.879 143.68 16.8304 144.314 18.0355C144.97 19.2406 145.297 20.6148 145.297 22.1581C145.297 23.7015 144.97 25.0757 144.314 26.2808C143.68 27.4859 142.792 28.4372 141.65 29.1349C140.53 29.8326 139.24 30.1814 137.781 30.1814ZM136.894 25.8051C137.591 25.8051 138.194 25.6465 138.701 25.3294C139.23 25.0123 139.642 24.5788 139.938 24.0292C140.234 23.4795 140.382 22.8558 140.382 22.1581C140.382 21.4393 140.234 20.8051 139.938 20.2554C139.642 19.7057 139.23 19.2829 138.701 18.9869C138.194 18.6697 137.602 18.5112 136.925 18.5112C136.249 18.5112 135.646 18.6697 135.118 18.9869C134.61 19.2829 134.209 19.7057 133.913 20.2554C133.617 20.8051 133.469 21.4393 133.469 22.1581C133.469 22.8558 133.606 23.4795 133.881 24.0292C134.177 24.5788 134.589 25.0123 135.118 25.3294C135.646 25.6465 136.238 25.8051 136.894 25.8051Z" fill="#DB7368"/>
<path d="M150.046 29.8958C150.934 30.1284 151.832 30.2446 152.741 30.2446C154.665 30.2446 156.187 29.8007 157.308 28.9127C158.449 28.0248 159.02 26.8303 159.02 25.3292C159.02 24.3567 158.841 23.5744 158.481 22.9825C158.122 22.3694 157.657 21.8831 157.086 21.5237C156.515 21.1643 155.912 20.8788 155.278 20.6674C154.644 20.456 154.041 20.2763 153.471 20.1283C152.9 19.9803 152.435 19.8112 152.075 19.6209C151.716 19.4306 151.536 19.1769 151.536 18.8598C151.536 18.5638 151.674 18.3418 151.948 18.1938C152.223 18.0247 152.635 17.9402 153.185 17.9402C153.756 17.9402 154.337 18.0564 154.929 18.289C155.542 18.5215 156.092 18.9233 156.578 19.4941L159.337 16.7034C158.64 15.8154 157.731 15.1494 156.61 14.7055C155.511 14.2404 154.306 14.0078 152.995 14.0078C151.748 14.0078 150.659 14.2192 149.729 14.642C148.798 15.0649 148.079 15.6463 147.572 16.3862C147.065 17.105 146.811 17.9613 146.811 18.955C146.811 19.8852 146.991 20.6569 147.35 21.27C147.709 21.8619 148.175 22.3271 148.745 22.6653C149.316 23.0036 149.919 23.2679 150.553 23.4581C151.187 23.6484 151.79 23.8281 152.361 23.9973C152.931 24.1453 153.397 24.325 153.756 24.5364C154.137 24.7267 154.327 25.0121 154.327 25.3926C154.327 25.6886 154.168 25.9211 153.851 26.0903C153.555 26.2594 153.122 26.344 152.551 26.344C151.726 26.344 150.965 26.196 150.268 25.9C149.57 25.5829 148.967 25.1495 148.46 24.5998L145.701 27.3905C146.23 27.9613 146.864 28.4688 147.604 28.9127C148.365 29.3355 149.179 29.6632 150.046 29.8958Z" fill="#DB7368"/>
<path d="M167.868 30.2142C166.452 30.2142 165.194 29.9288 164.095 29.358C163.016 28.766 162.171 27.9626 161.558 26.9478C160.944 25.9119 160.638 24.728 160.638 23.396V14.4531H165.49V23.3326C165.49 23.8611 165.574 24.3157 165.744 24.6962C165.934 25.0768 166.209 25.3728 166.568 25.5842C166.928 25.7956 167.361 25.9013 167.868 25.9013C168.587 25.9013 169.158 25.6793 169.581 25.2353C170.004 24.7702 170.215 24.136 170.215 23.3326V14.4531H175.067V23.3643C175.067 24.7174 174.761 25.9119 174.147 26.9478C173.534 27.9626 172.689 28.766 171.61 29.358C170.532 29.9288 169.285 30.2142 167.868 30.2142Z" fill="#DB7368"/>
<path d="M182.331 14.452H177.479V29.8643H182.331V20.8579C182.331 20.3294 182.437 19.8854 182.648 19.526C182.881 19.1666 183.188 18.8917 183.568 18.7015C183.949 18.49 184.382 18.3843 184.868 18.3843C185.566 18.3843 186.147 18.6063 186.612 19.0503C187.099 19.4731 187.342 20.0757 187.342 20.8579V29.8643H192.194V20.8579C192.194 20.3294 192.3 19.8854 192.511 19.526C192.744 19.1666 193.05 18.8917 193.431 18.7015C193.811 18.49 194.245 18.3843 194.731 18.3843C195.429 18.3843 196.01 18.6063 196.475 19.0503C196.961 19.4731 197.204 20.0757 197.204 20.8579V29.8643H202.057V20.3188C202.057 19.0292 201.782 17.9298 201.232 17.0207C200.703 16.0904 199.974 15.3822 199.044 14.896C198.135 14.3885 197.088 14.1348 195.904 14.1348C194.699 14.1348 193.61 14.3991 192.638 14.9277C192.006 15.2644 191.454 15.699 190.981 16.2314C190.54 15.6745 190.004 15.2188 189.371 14.8642C188.526 14.378 187.564 14.1348 186.486 14.1348C185.344 14.1348 184.319 14.378 183.41 14.8642C183.014 15.0665 182.655 15.3088 182.331 15.5911V14.452Z" fill="#DB7368"/>
</g>
<defs>
<clipPath id="clip0_1562_5033">
<rect width="202" height="40" fill="white" transform="translate(0.5)"/>
</clipPath>
</defs>
</svg>
